<svg viewBox="0 0 32 32" xmlns="http://www.w3.org/2000/svg" xmlns:xlink="http://www.w3.org/1999/xlink" width="32.000000" height="32.000000" fill="none">
	<defs>
		<clipPath id="clipPath_1">
			<rect width="32.000000" height="32.000000" x="0.000000" y="0.000000" fill="rgb(255,255,255)" />
		</clipPath>
	</defs>
	<rect id="Color=Off" width="32.000000" height="32.000000" x="0.000000" y="0.000000" />
	<g id="32icon-grid" opacity="0" clip-path="url(#clipPath_1)" customFrame="url(#clipPath_1)">
		<rect id="32icon-grid" width="32.000000" height="32.000000" x="0.000000" y="0.000000" opacity="0" fill="rgb(255,255,255)" fill-opacity="0" />
		<g id="Group 156" opacity="0.899999976">
			<rect id="Rectangle 908" width="20.000000" height="28.000000" x="6.000000" y="2.000000" fill="rgb(196,196,196)" fill-opacity="0" />
			<rect id="Rectangle 908" width="20.000000" height="28.000000" x="6.000000" y="2.000000" stroke="rgb(248,204,213)" stroke-opacity="0.330000013" stroke-width="0.100000001" />
			<rect id="Rectangle 911" width="16.000000" height="16.000000" x="8.000000" y="8.000000" fill="rgb(196,196,196)" fill-opacity="0" />
			<rect id="Rectangle 911" width="16.000000" height="16.000000" x="8.000000" y="8.000000" stroke="rgb(248,204,213)" stroke-opacity="0.330000013" stroke-width="0.100000001" />
			<path id="Rectangle 909" d="M30 6L30 26L2 26L2 6L30 6Z" fill="rgb(196,196,196)" fill-opacity="0" fill-rule="nonzero" />
			<path id="Rectangle 909" d="M30 26L2 26L2 6L30 6L30 26Z" fill-rule="nonzero" stroke="rgb(248,204,213)" stroke-opacity="0.330000013" stroke-width="0.100000001" />
			<path id="Rectangle 910" d="M28 4L28 28L4 28L4 4L28 4Z" fill="rgb(196,196,196)" fill-opacity="0" fill-rule="nonzero" />
			<path id="Rectangle 910" d="M28 28L4 28L4 4L28 4L28 28Z" fill-rule="nonzero" stroke="rgb(248,204,213)" stroke-opacity="0.330000013" stroke-width="0.100000001" />
			<circle id="Ellipse 48" cx="16" cy="16" r="14" fill="rgb(196,196,196)" fill-opacity="0" />
			<circle id="Ellipse 48" cx="16" cy="16" r="14" stroke="rgb(248,204,213)" stroke-opacity="0.330000013" stroke-width="0.100000001" />
			<circle id="Ellipse 46" cx="16" cy="16" r="8" fill="rgb(196,196,196)" fill-opacity="0" />
			<circle id="Ellipse 46" cx="16" cy="16" r="8" stroke="rgb(248,204,213)" stroke-opacity="0.330000013" stroke-width="0.100000001" />
			<path id="Vector 25" d="M0 0L32 32" stroke="rgb(248,204,213)" stroke-opacity="0.330000013" stroke-width="0.100000001" />
			<path id="Vector 27" d="M0 0L32 0" stroke="rgb(248,204,213)" stroke-opacity="0.330000013" stroke-width="0.100000001" transform="matrix(2.07388e-07,1,-1,2.56035e-07,16,0)" />
			<path id="Vector 29" d="M0 0L32 0" stroke="rgb(248,204,213)" stroke-opacity="0.330000013" stroke-width="0.100000001" transform="matrix(2.07388e-07,1,-1,2.56035e-07,11,0)" />
			<path id="Vector 32" d="M0 0L32 0" stroke="rgb(248,204,213)" stroke-opacity="0.330000013" stroke-width="0.100000001" transform="matrix(-1,1.68048e-07,-2.07466e-07,-1,32,11)" />
			<path id="Vector 30" d="M0 0L32 0" stroke="rgb(248,204,213)" stroke-opacity="0.330000013" stroke-width="0.100000001" transform="matrix(2.07388e-07,1,-1,2.56035e-07,21,0)" />
			<path id="Vector 33" d="M0 0L32 0" stroke="rgb(248,204,213)" stroke-opacity="0.330000013" stroke-width="0.100000001" transform="matrix(-1,1.68048e-07,-2.07466e-07,-1,32,21)" />
			<path id="Vector 28" d="M0 0L32 0" stroke="rgb(248,204,213)" stroke-opacity="0.330000013" stroke-width="0.100000001" transform="matrix(-1,-3.93402e-08,4.85682e-08,-1,32,16)" />
			<path id="Vector 26" d="M0 0L32 32" stroke="rgb(248,204,213)" stroke-opacity="0.330000013" stroke-width="0.100000001" transform="matrix(-1,0,0,1,32,0)" />
		</g>
	</g>
	<path id="for edit" d="M17.0345 2C20.3494 2 23.1787 4.07884 24.2899 7.00394C24.3596 7.00132 24.4296 7 24.5 7C27.5375 7 30 9.46243 30 12.5C30 14.5659 28.861 16.3658 27.1766 17.3059C28.8861 18.5759 30 20.653 30 23C30 26.866 26.9776 30 23.2493 30C23.1658 30 23.0827 29.9984 23 29.9953L23 30L12.7671 30L12.7671 29.9988C12.7143 29.9996 12.6613 30 12.6083 30C6.74949 30 2 25.0751 2 19C2 14.0943 5.09694 9.9387 9.37412 8.52057C9.96691 4.82406 13.1709 2 17.0345 2ZM11.5307 8.05606C11.885 8.01899 12.2445 8 12.6083 8C17.469 8 21.5661 11.3898 22.821 16.0139C22.9215 16.0073 23.0225 16.0031 23.1241 16.0012C23.0828 16.0005 23.0414 16.0001 23 16.0001L22.9664 16.0002L22.9664 16L24.5602 16L24.5602 15.9995C24.817 15.9953 25.0674 15.9643 25.3115 15.9064C25.4986 15.862 25.682 15.8018 25.8617 15.7258C26.0507 15.6459 26.23 15.551 26.3996 15.4412L26.3996 15.4412L26.3999 15.441C26.6058 15.3076 26.7974 15.1523 26.9748 14.9749C27.1523 14.7974 27.3077 14.6057 27.441 14.3997L27.4411 14.3997L27.4412 14.3995C27.551 14.2299 27.6458 14.0507 27.7257 13.8617C27.8017 13.6821 27.8619 13.4987 27.9063 13.3115L27.9063 13.3115L27.9064 13.3114C27.9688 13.0483 28 12.7779 28 12.5C28 12.2221 27.9688 11.9516 27.9063 11.6885C27.8619 11.5013 27.8017 11.3179 27.7257 11.1383C27.6458 10.9494 27.551 10.7701 27.4413 10.6006L27.4411 10.6004C27.3077 10.3943 27.1523 10.2026 26.9748 10.0251C26.7975 9.84774 26.6058 9.69237 26.3999 9.55903L26.3996 9.55887C26.23 9.44905 26.0507 9.35416 25.8617 9.27423C25.682 9.19823 25.4986 9.13803 25.3114 9.09362C25.0483 9.03121 24.7779 9 24.5 9C24.2221 9 23.9516 9.03121 23.6885 9.09362C23.5013 9.13803 23.3179 9.19823 23.1382 9.27423C22.9939 9.33528 22.8552 9.40504 22.7221 9.48353C22.7205 8.9169 22.6331 8.37044 22.4724 7.8564C22.4325 7.74264 22.3888 7.62975 22.3414 7.51773C22.2079 7.20198 22.049 6.9027 21.8649 6.6199C21.6474 6.28582 21.3946 5.97475 21.1065 5.68666C20.8184 5.3986 20.5074 5.14582 20.1734 4.92833L20.1733 4.9283C19.8905 4.74414 19.5912 4.58528 19.2754 4.45172C18.9709 4.32292 18.66 4.22166 18.3426 4.14794L18.3426 4.14794L18.3421 4.14783C17.9177 4.04928 17.4818 4 17.0345 4C16.587 4 16.151 4.04931 15.7264 4.14793L15.7264 4.14793C15.4091 4.22165 15.0981 4.32291 14.7936 4.45172C14.4779 4.58527 14.1786 4.74411 13.8958 4.92825L13.8956 4.92836C13.5616 5.14585 13.2506 5.39862 12.9625 5.68666C12.6745 5.97471 12.4217 6.28573 12.2042 6.61972L12.2041 6.61987C12.02 6.90268 11.8611 7.20197 11.7276 7.51773C11.6526 7.695 11.587 7.87445 11.5307 8.05606ZM23.3029 28L12.652 28L12.652 27.9999C12.6374 28 12.6228 28 12.6083 28C12.0047 28 11.4149 27.9371 10.8388 27.8113L10.8388 27.8113C10.3083 27.6955 9.78952 27.5264 9.28236 27.304C8.91377 27.1423 8.56009 26.9566 8.22133 26.7468C7.61541 26.3715 7.05721 25.9192 6.54671 25.3898C6.20073 25.0311 5.88844 24.6492 5.60981 24.2441L5.60976 24.244C5.24348 23.7115 4.9354 23.1389 4.68552 22.5263C4.50867 22.0928 4.36604 21.651 4.25763 21.2009L4.25762 21.2009L4.25761 21.2009C4.08587 20.4879 4 19.7543 4 19C4 18.2457 4.08587 17.512 4.25762 16.7991L4.25762 16.7991L4.25763 16.7991C4.36604 16.349 4.50867 15.9072 4.68552 15.4737C4.93535 14.8612 5.24338 14.2887 5.60958 13.7563L5.60974 13.756L5.61019 13.7554C5.88872 13.3505 6.20089 12.9688 6.54671 12.6102C7.05724 12.0808 7.6155 11.6284 8.22147 11.2531L8.22148 11.2531C8.5602 11.0434 8.91383 10.8577 9.28236 10.696C9.78948 10.4736 10.3082 10.3045 10.8386 10.1887L10.8387 10.1887C11.4148 10.0629 12.0047 10 12.6083 10C13.2119 10 13.8018 10.0629 14.3779 10.1887L14.3779 10.1887L14.378 10.1887C14.9084 10.3045 15.4271 10.4736 15.9342 10.696C16.3027 10.8577 16.6564 11.0434 16.9951 11.2531L16.9952 11.2532C17.6011 11.6285 18.1594 12.0808 18.6699 12.6102C19.0155 12.9686 19.3276 13.3502 19.606 13.7549L19.6061 13.755L19.6067 13.7559C19.9731 14.2885 20.2812 14.861 20.5311 15.4737C20.7069 15.9047 20.8488 16.3438 20.957 16.7911L20.9599 16.7899C21.0935 17.3357 21.1787 17.9015 21.2106 18.4821C21.281 18.4469 21.3525 18.4135 21.4249 18.3817C21.7011 18.2606 21.9836 18.1683 22.2724 18.1048L22.2724 18.1048L22.2727 18.1047L22.2728 18.1047C22.5906 18.0349 22.9161 18 23.2493 18C23.5826 18 23.9082 18.0349 24.2262 18.1048C24.515 18.1683 24.7975 18.2606 25.0737 18.3817C25.2646 18.4654 25.4483 18.561 25.6249 18.6683C25.9721 18.8794 26.2915 19.1362 26.5832 19.4386C26.771 19.6334 26.941 19.8405 27.0931 20.06L27.0932 20.06L27.0932 20.0601C27.3014 20.3605 27.4762 20.684 27.6176 21.0307C27.7123 21.2627 27.7893 21.499 27.8488 21.7397L27.8489 21.7399C27.9496 22.1475 28 22.5675 28 23C28 23.4325 27.9496 23.8526 27.8488 24.2603L27.8488 24.2603C27.7893 24.501 27.7123 24.7373 27.6176 24.9693C27.4762 25.316 27.3014 25.6395 27.0932 25.9399L27.0932 25.9399C26.941 26.1594 26.771 26.3666 26.5832 26.5614C26.2915 26.8638 25.9721 27.1205 25.625 27.3316L25.6249 27.3317C25.4483 27.439 25.2646 27.5346 25.0737 27.6183C24.7975 27.7394 24.515 27.8317 24.2262 27.8952L24.2262 27.8952C23.9253 27.9613 23.6176 27.9961 23.3029 27.9997L23.3029 28Z" opacity="0" fill="rgb(51.8936,51.4781,72.25)" fill-rule="evenodd" />
	<path id="outline" d="M11.5317 8.05595C11.8857 8.01895 12.2449 8 12.6083 8C17.469 8 21.5661 11.3898 22.821 16.0139C22.9215 16.0073 23.0225 16.0031 23.1241 16.0012C23.0828 16.0005 23.0414 16.0001 23 16.0001L22.9664 16.0002L22.9664 16L24.5 16L24.5602 16L24.5602 15.9995C26.4654 15.9673 28 14.4129 28 12.5C28 10.567 26.433 9 24.5 9C23.8509 9 23.2432 9.17666 22.7221 9.4845C22.7206 8.92577 22.6357 8.38663 22.4793 7.87885C21.7001 5.62147 19.5567 4 17.0345 4C14.4468 4 12.2578 5.70676 11.5317 8.05595ZM27.1766 17.3059C28.8861 18.5759 30 20.653 30 23C30 26.866 26.9776 30 23.2493 30C23.1658 30 23.0827 29.9984 23 29.9953L23 30L12.7671 30L12.7671 29.9988C12.7143 29.9996 12.6613 30 12.6083 30C6.74949 30 2 25.0751 2 19C2 14.0943 5.09693 9.9387 9.37412 8.52057C9.96691 4.82406 13.1709 2 17.0345 2C20.3494 2 23.1787 4.07884 24.2899 7.00394C24.3596 7.00132 24.4296 7 24.5 7C27.5375 7 30 9.46243 30 12.5C30 14.5659 28.8609 16.3658 27.1766 17.3059ZM23 28L12.7671 28L12.652 28L12.652 27.9999L12.6083 28C7.92179 28 4 24.0395 4 19C4 13.9605 7.92179 10 12.6083 10C16.5839 10 20.0091 12.85 20.9569 16.7911L20.9599 16.7899C21.0937 17.3367 21.1791 17.9037 21.2108 18.4855C21.8339 18.1732 22.5272 18 23.2493 18C25.8053 18 28 20.1696 28 23C28 25.8105 25.8359 27.9695 23.3029 27.9996L23.3029 28L23 28Z" fill="rgb(255,255,255)" fill-rule="evenodd" />
</svg>
