<svg viewBox="0 0 32 32" xmlns="http://www.w3.org/2000/svg" xmlns:xlink="http://www.w3.org/1999/xlink" width="32.000000" height="32.000000" fill="none">
	<defs>
		<clipPath id="clipPath_13">
			<rect width="32.000000" height="32.000000" x="0.000000" y="0.000000" fill="rgb(255,255,255)" />
		</clipPath>
	</defs>
	<rect id="Color=Off" width="32.000000" height="32.000000" x="0.000000" y="0.000000" />
	<g id="32icon-grid" opacity="0" clip-path="url(#clipPath_13)" customFrame="url(#clipPath_13)">
		<rect id="32icon-grid" width="32.000000" height="32.000000" x="0.000000" y="0.000000" opacity="0" fill="rgb(255,255,255)" fill-opacity="0" />
		<g id="Group 156" opacity="0.899999976">
			<rect id="Rectangle 908" width="20.000000" height="28.000000" x="6.000000" y="2.000000" fill="rgb(196,196,196)" fill-opacity="0" />
			<rect id="Rectangle 908" width="20.000000" height="28.000000" x="6.000000" y="2.000000" stroke="rgb(248,204,213)" stroke-opacity="0.330000013" stroke-width="0.100000001" />
			<rect id="Rectangle 911" width="16.000000" height="16.000000" x="8.000000" y="8.000000" fill="rgb(196,196,196)" fill-opacity="0" />
			<rect id="Rectangle 911" width="16.000000" height="16.000000" x="8.000000" y="8.000000" stroke="rgb(248,204,213)" stroke-opacity="0.330000013" stroke-width="0.100000001" />
			<path id="Rectangle 909" d="M30 6L30 26L2 26L2 6L30 6Z" fill="rgb(196,196,196)" fill-opacity="0" fill-rule="nonzero" />
			<path id="Rectangle 909" d="M30 26L2 26L2 6L30 6L30 26Z" fill-rule="nonzero" stroke="rgb(248,204,213)" stroke-opacity="0.330000013" stroke-width="0.100000001" />
			<path id="Rectangle 910" d="M28 4L28 28L4 28L4 4L28 4Z" fill="rgb(196,196,196)" fill-opacity="0" fill-rule="nonzero" />
			<path id="Rectangle 910" d="M28 28L4 28L4 4L28 4L28 28Z" fill-rule="nonzero" stroke="rgb(248,204,213)" stroke-opacity="0.330000013" stroke-width="0.100000001" />
			<circle id="Ellipse 48" cx="16" cy="16" r="14" fill="rgb(196,196,196)" fill-opacity="0" />
			<circle id="Ellipse 48" cx="16" cy="16" r="14" stroke="rgb(248,204,213)" stroke-opacity="0.330000013" stroke-width="0.100000001" />
			<circle id="Ellipse 46" cx="16" cy="16" r="8" fill="rgb(196,196,196)" fill-opacity="0" />
			<circle id="Ellipse 46" cx="16" cy="16" r="8" stroke="rgb(248,204,213)" stroke-opacity="0.330000013" stroke-width="0.100000001" />
			<path id="Vector 25" d="M0 0L32 32" stroke="rgb(248,204,213)" stroke-opacity="0.330000013" stroke-width="0.100000001" />
			<path id="Vector 27" d="M0 0L32 0" stroke="rgb(248,204,213)" stroke-opacity="0.330000013" stroke-width="0.100000001" transform="matrix(2.07388e-07,1,-1,2.56035e-07,16,0)" />
			<path id="Vector 29" d="M0 0L32 0" stroke="rgb(248,204,213)" stroke-opacity="0.330000013" stroke-width="0.100000001" transform="matrix(2.07388e-07,1,-1,2.56035e-07,11,0)" />
			<path id="Vector 32" d="M0 0L32 0" stroke="rgb(248,204,213)" stroke-opacity="0.330000013" stroke-width="0.100000001" transform="matrix(-1,1.68048e-07,-2.07466e-07,-1,32,11)" />
			<path id="Vector 30" d="M0 0L32 0" stroke="rgb(248,204,213)" stroke-opacity="0.330000013" stroke-width="0.100000001" transform="matrix(2.07388e-07,1,-1,2.56035e-07,21,0)" />
			<path id="Vector 33" d="M0 0L32 0" stroke="rgb(248,204,213)" stroke-opacity="0.330000013" stroke-width="0.100000001" transform="matrix(-1,1.68048e-07,-2.07466e-07,-1,32,21)" />
			<path id="Vector 28" d="M0 0L32 0" stroke="rgb(248,204,213)" stroke-opacity="0.330000013" stroke-width="0.100000001" transform="matrix(-1,-3.93402e-08,4.85682e-08,-1,32,16)" />
			<path id="Vector 26" d="M0 0L32 32" stroke="rgb(248,204,213)" stroke-opacity="0.330000013" stroke-width="0.100000001" transform="matrix(-1,0,0,1,32,0)" />
		</g>
	</g>
	<path id="for edit" d="M12 0C12.462 0 12.9179 0.0261082 13.3663 0.0769296C12.2015 0.508566 11.1823 1.2368 10.3992 2.16871C9.40935 3.30301 8.76916 4.75808 8.66438 6.37441C8.55999 7.9437 8.97265 9.55727 9.95108 10.9395C10.8576 12.2247 12.1938 13.2189 13.8241 13.6773C15.3374 14.1055 17.0015 14.0372 18.5569 13.3674C19.9078 12.7883 21.0881 11.7893 21.8804 10.4379L21.879 10.4293C22.4951 9.42769 22.8687 8.26222 22.9191 7.0156C23.6132 8.53368 24 10.2217 24 12C24 18.6274 18.6274 24 12 24C5.37258 24 0 18.6274 0 12C0 5.37258 5.37258 0 12 0ZM21.2522 1.87453L19.6128 2.31379L18.6885 0.890423L18.5997 2.58527L16.9603 3.02453L18.5448 3.63274L18.456 5.32758L19.524 4.00863L21.1085 4.61684L20.1841 3.19348L21.2522 1.87453ZM15.4566 3.42744L13.8173 3.8667L12.8929 2.44334L12.8041 4.13818L11.1648 4.57744L12.7492 5.18565L12.6604 6.88049L13.7285 5.56155L15.3129 6.16976L14.3886 4.74639L15.4566 3.42744ZM8.21414 12.1659C7.03375 10.4978 6.39627 8.42982 6.54271 6.23435C6.61037 5.1932 6.85363 4.16012 7.27435 3.1833C7.02088 3.31903 6.77427 3.46524 6.53451 3.62193L6.53447 3.62196L6.53445 3.62198L6.53441 3.622C5.95992 3.99746 5.42476 4.4331 4.92893 4.92893C4.43315 5.42472 3.99754 5.95983 3.6221 6.53427L3.62198 6.53445L3.62196 6.53447C3.29825 7.0298 3.01927 7.55436 2.78503 8.10816C2.55704 8.64719 2.37871 9.19759 2.25004 9.75936L2.25001 9.7595C2.08334 10.4872 2 11.2341 2 12C2 12.7659 2.08333 13.5127 2.24998 14.2404L2.25006 14.2407C2.37873 14.8025 2.55705 15.3528 2.78503 15.8918C3.01928 16.4457 3.29827 16.9703 3.622 17.4656L3.62248 17.4663L3.62252 17.4664C3.99787 18.0406 4.43334 18.5755 4.92893 19.0711C5.42475 19.5669 5.9599 20.0025 6.53438 20.378C7.02973 20.7017 7.55432 20.9807 8.10816 21.215C8.64719 21.443 9.19758 21.6213 9.75936 21.75L9.75942 21.75L9.75947 21.75C10.4872 21.9167 11.2341 22 12 22C12.766 22 13.5129 21.9167 14.2407 21.75C14.8024 21.6213 15.3528 21.443 15.8918 21.215C16.4457 20.9807 16.9703 20.7017 17.4657 20.3779C18.0402 20.0025 18.5753 19.5669 19.0711 19.0711C19.5669 18.5753 20.0025 18.0402 20.3779 17.4657C20.7017 16.9703 20.9807 16.4457 21.215 15.8918C21.443 15.3528 21.6213 14.8024 21.75 14.2407C21.7849 14.0879 21.8162 13.9344 21.8439 13.78C21.1324 14.4042 20.3122 14.9285 19.3956 15.3213C17.5186 16.1292 15.3632 16.323 13.2461 15.7235C11.279 15.1701 9.48208 13.9642 8.21414 12.1659ZM17.7503 6.95395L19.3897 6.51469L18.3216 7.83364L19.246 9.257L17.6615 8.64879L16.5935 9.96774L16.6823 8.2729L15.0978 7.66469L16.7372 7.22543L16.826 5.53058L17.7503 6.95395Z" opacity="0" fill="rgb(51.8936,51.4781,72.25)" fill-rule="evenodd" transform="matrix(0.965926,0.258819,-0.258819,0.965926,7.51477,1.30298)" />
	<path id="outline" d="M24 12C24 10.2217 23.6132 8.53368 22.9191 7.0156C22.8686 8.26311 22.4946 9.42936 21.8777 10.4314L21.879 10.44C21.424 11.2144 20.8256 11.8965 20.1149 12.4492C19.3165 13.0702 18.3946 13.5135 17.4111 13.7495C16.4275 13.9856 15.4049 14.0089 14.4116 13.818C13.4183 13.627 12.4772 13.2262 11.6512 12.6423C10.8253 12.0584 10.1335 11.3049 9.62221 10.4321C9.11089 9.55941 8.79181 8.58756 8.68628 7.58159C8.58076 6.57562 8.69123 5.55871 9.01031 4.59887C9.30793 3.70359 9.78064 2.87719 10.4002 2.16748C11.1832 1.23616 12.202 0.508377 13.3663 0.0769296C12.9179 0.0261082 12.462 -1.38778e-17 12 0C5.37258 2.22045e-16 -2.22045e-16 5.37258 0 12C2.22045e-16 18.6274 5.37258 24 12 24C18.6274 24 24 18.6274 24 12ZM21.8421 13.7797C21.0026 18.4535 16.9155 22 12 22C6.47715 22 2 17.5228 2 12C2 8.18596 4.13524 4.87063 7.27554 3.18419C7.17061 3.42748 7.07602 3.67561 6.99213 3.92796C6.57754 5.1751 6.434 6.49639 6.57111 7.80347C6.70822 9.11055 7.12282 10.3733 7.78718 11.5072C8.45155 12.6412 9.35036 13.6203 10.4235 14.3789C11.4967 15.1376 12.7195 15.6584 14.0101 15.9065C15.3007 16.1546 16.6294 16.1243 17.9074 15.8176C19.1853 15.5109 20.3831 14.9349 21.4205 14.1281C21.5647 14.016 21.7052 13.8998 21.8421 13.7797ZM19.6128 2.31379L18.6885 0.890423L18.5997 2.58527L16.9603 3.02453L18.5448 3.63274L18.456 5.32758L19.524 4.00863L21.1085 4.61684L20.1841 3.19348L21.2522 1.87453L19.6128 2.31379ZM12.8929 2.44334L13.8173 3.8667L15.4566 3.42744L14.3886 4.74639L15.3129 6.16976L13.7285 5.56155L12.6604 6.88049L12.7492 5.18565L11.1648 4.57744L12.8041 4.13818L12.8929 2.44334ZM17.7503 6.95395L16.826 5.53058L16.7372 7.22543L15.0978 7.66469L16.6823 8.2729L16.5935 9.96774L17.6615 8.64879L19.246 9.257L18.3216 7.83364L19.3897 6.51469L17.7503 6.95395Z" fill="rgb(255,255,255)" fill-rule="evenodd" transform="matrix(0.965926,0.258819,-0.258819,0.965926,7.51465,1.30298)" />
</svg>
