<svg viewBox="0 0 32 32" xmlns="http://www.w3.org/2000/svg" xmlns:xlink="http://www.w3.org/1999/xlink" width="32.000000" height="32.000000" fill="none">
	<defs>
		<clipPath id="clipPath_12">
			<rect width="32.000000" height="32.000000" x="0.000000" y="0.000000" fill="rgb(255,255,255)" />
		</clipPath>
	</defs>
	<rect id="Color=Off" width="32.000000" height="32.000000" x="0.000000" y="0.000000" />
	<g id="32icon-grid" opacity="0" clip-path="url(#clipPath_12)" customFrame="url(#clipPath_12)">
		<rect id="32icon-grid" width="32.000000" height="32.000000" x="0.000000" y="0.000000" opacity="0" fill="rgb(255,255,255)" fill-opacity="0" />
		<g id="Group 156" opacity="0.899999976">
			<rect id="Rectangle 908" width="20.000000" height="28.000000" x="6.000000" y="2.000000" fill="rgb(196,196,196)" fill-opacity="0" />
			<rect id="Rectangle 908" width="20.000000" height="28.000000" x="6.000000" y="2.000000" stroke="rgb(248,204,213)" stroke-opacity="0.330000013" stroke-width="0.100000001" />
			<rect id="Rectangle 911" width="16.000000" height="16.000000" x="8.000000" y="8.000000" fill="rgb(196,196,196)" fill-opacity="0" />
			<rect id="Rectangle 911" width="16.000000" height="16.000000" x="8.000000" y="8.000000" stroke="rgb(248,204,213)" stroke-opacity="0.330000013" stroke-width="0.100000001" />
			<path id="Rectangle 909" d="M30 6L30 26L2 26L2 6L30 6Z" fill="rgb(196,196,196)" fill-opacity="0" fill-rule="nonzero" />
			<path id="Rectangle 909" d="M30 26L2 26L2 6L30 6L30 26Z" fill-rule="nonzero" stroke="rgb(248,204,213)" stroke-opacity="0.330000013" stroke-width="0.100000001" />
			<path id="Rectangle 910" d="M28 4L28 28L4 28L4 4L28 4Z" fill="rgb(196,196,196)" fill-opacity="0" fill-rule="nonzero" />
			<path id="Rectangle 910" d="M28 28L4 28L4 4L28 4L28 28Z" fill-rule="nonzero" stroke="rgb(248,204,213)" stroke-opacity="0.330000013" stroke-width="0.100000001" />
			<circle id="Ellipse 48" cx="16" cy="16" r="14" fill="rgb(196,196,196)" fill-opacity="0" />
			<circle id="Ellipse 48" cx="16" cy="16" r="14" stroke="rgb(248,204,213)" stroke-opacity="0.330000013" stroke-width="0.100000001" />
			<circle id="Ellipse 46" cx="16" cy="16" r="8" fill="rgb(196,196,196)" fill-opacity="0" />
			<circle id="Ellipse 46" cx="16" cy="16" r="8" stroke="rgb(248,204,213)" stroke-opacity="0.330000013" stroke-width="0.100000001" />
			<path id="Vector 25" d="M0 0L32 32" stroke="rgb(248,204,213)" stroke-opacity="0.330000013" stroke-width="0.100000001" />
			<path id="Vector 27" d="M0 0L32 0" stroke="rgb(248,204,213)" stroke-opacity="0.330000013" stroke-width="0.100000001" transform="matrix(2.07388e-07,1,-1,2.56035e-07,16,0)" />
			<path id="Vector 29" d="M0 0L32 0" stroke="rgb(248,204,213)" stroke-opacity="0.330000013" stroke-width="0.100000001" transform="matrix(2.07388e-07,1,-1,2.56035e-07,11,0)" />
			<path id="Vector 32" d="M0 0L32 0" stroke="rgb(248,204,213)" stroke-opacity="0.330000013" stroke-width="0.100000001" transform="matrix(-1,1.68048e-07,-2.07466e-07,-1,32,11)" />
			<path id="Vector 30" d="M0 0L32 0" stroke="rgb(248,204,213)" stroke-opacity="0.330000013" stroke-width="0.100000001" transform="matrix(2.07388e-07,1,-1,2.56035e-07,21,0)" />
			<path id="Vector 33" d="M0 0L32 0" stroke="rgb(248,204,213)" stroke-opacity="0.330000013" stroke-width="0.100000001" transform="matrix(-1,1.68048e-07,-2.07466e-07,-1,32,21)" />
			<path id="Vector 28" d="M0 0L32 0" stroke="rgb(248,204,213)" stroke-opacity="0.330000013" stroke-width="0.100000001" transform="matrix(-1,-3.93402e-08,4.85682e-08,-1,32,16)" />
			<path id="Vector 26" d="M0 0L32 32" stroke="rgb(248,204,213)" stroke-opacity="0.330000013" stroke-width="0.100000001" transform="matrix(-1,0,0,1,32,0)" />
		</g>
	</g>
	<path id="for edit" d="M12.5 3C17.0808 3 20.9765 5.95612 22.4111 10.0786C22.6052 10.0623 22.8016 10.054 22.9999 10.054C26.8659 10.054 29.9999 13.2122 29.9999 17.1081C29.9999 20.4852 27.6452 23.3079 24.5 23.9999L24.5 21.9318C24.6485 21.8845 24.7953 21.83 24.9404 21.7681C25.1983 21.6582 25.4436 21.5286 25.6763 21.3793C25.9828 21.1828 26.2673 20.9521 26.53 20.6874C26.7697 20.4459 26.9813 20.1859 27.1649 19.9075L27.1653 19.907C27.3364 19.6473 27.4832 19.3716 27.6057 19.0799C27.7144 18.8208 27.8007 18.5564 27.8644 18.2867L27.8645 18.2863C27.9548 17.9042 27.9999 17.5115 27.9999 17.1081C27.9999 16.7048 27.9548 16.312 27.8645 15.93L27.8642 15.9286C27.8005 15.6592 27.7143 15.3951 27.6057 15.1364C27.4833 14.8447 27.3365 14.569 27.1654 14.3094C26.9816 14.0307 26.7699 13.7705 26.53 13.5289C26.2673 13.2641 25.9828 13.0335 25.6763 12.8369L25.6763 12.8369L25.6763 12.8369C25.4436 12.6877 25.1983 12.5581 24.9404 12.4482C24.6716 12.3336 24.3971 12.244 24.1168 12.1794L24.1167 12.1794C23.7541 12.0958 23.3818 12.054 22.9999 12.054C22.6181 12.054 22.2458 12.0958 21.8832 12.1794L21.8832 12.1794C21.6028 12.244 21.3283 12.3336 21.0594 12.4482C21.0175 12.466 20.976 12.4844 20.9347 12.5033C20.8513 11.8187 20.6893 11.1588 20.4583 10.5334C20.4556 10.5345 20.4529 10.5355 20.4502 10.5366C20.4123 10.4361 20.3725 10.3361 20.3307 10.2366C20.1221 9.73965 19.872 9.2702 19.5802 8.82821L19.5794 8.82693C19.2685 8.35608 18.9103 7.91641 18.505 7.50792C18.0651 7.06466 17.589 6.67758 17.0765 6.34669L17.0765 6.34668L17.0764 6.34662L17.0761 6.34641C16.674 6.0868 16.2496 5.86179 15.8029 5.67137C15.3374 5.47295 14.8618 5.31851 14.3763 5.20805L14.3762 5.20804L14.3754 5.20785L14.3754 5.20784C13.766 5.06928 13.1409 5 12.5 5C11.8592 5 11.2341 5.06927 10.6248 5.2078L10.6248 5.20781L10.6247 5.20783L10.6246 5.20784L10.6245 5.20786L10.6242 5.20794L10.6241 5.20795L10.6241 5.20797L10.6238 5.20802C10.1383 5.31848 9.66269 5.47293 9.19713 5.67137C8.75038 5.86179 8.32596 6.08681 7.92387 6.34641L7.92386 6.34643C7.41128 6.67737 6.93501 7.06454 6.49503 7.50792C6.08974 7.91634 5.73165 8.35594 5.42076 8.8267L5.42057 8.82698C5.12848 9.26932 4.87805 9.73918 4.66929 10.2366C4.48016 10.6872 4.33111 11.1471 4.22214 11.6163L4.22214 11.6164L4.22213 11.6164C4.07405 12.2541 4 12.9091 4 13.5812C4 14.2534 4.07405 14.9084 4.22215 15.5461C4.33112 16.0154 4.48016 16.4753 4.66929 16.9259C4.87804 17.4232 5.12845 17.8931 5.42052 18.3354L5.42056 18.3354L5.42057 18.3354C5.7315 18.8063 6.08966 19.246 6.49503 19.6545C6.93505 20.0979 7.41137 20.4851 7.924 20.8161L7.92563 20.8172C8.11228 20.9376 8.30373 21.0506 8.5 21.1561L8.5 23.3676C4.68511 21.7823 2 17.9978 2 13.5812C2 7.73737 6.70101 3 12.5 3ZM13 20L23 20L23 18L13 18L13 20ZM11 24L21 24L21 22L11 22L11 24ZM23 28L13 28L13 26L23 26L23 28Z" opacity="0" fill="rgb(51.8936,51.4781,72.25)" fill-rule="evenodd" />
	<path id="outline" d="M27.9999 17.1081C27.9999 19.381 26.5216 21.2879 24.5 21.9304L24.5 23.9999C27.6452 23.3079 29.9999 20.4852 29.9999 17.1081C29.9999 13.2122 26.8659 10.054 22.9999 10.054C22.8016 10.054 22.6052 10.0623 22.4111 10.0786C20.9765 5.95612 17.0808 3 12.5 3C6.70101 3 2 7.73737 2 13.5812C2 17.9978 4.68511 21.7823 8.5 23.3676L8.5 21.1542C5.82613 19.712 4 16.868 4 13.5812C4 8.82738 7.82008 5 12.5 5C16.1234 5 19.2314 7.29436 20.45 10.5367L20.4583 10.5334C20.6894 11.1592 20.8514 11.8194 20.9349 12.5044C21.5654 12.2149 22.265 12.054 22.9999 12.054C25.7469 12.054 27.9999 14.3023 27.9999 17.1081ZM23 18L13 18L13 20L23 20L23 18ZM21 22L11 22L11 24L21 24L21 22ZM13 26L23 26L23 28L13 28L13 26Z" fill="rgb(255,255,255)" fill-rule="evenodd" />
</svg>
