<svg viewBox="0 0 14.5063 19.3418" xmlns="http://www.w3.org/2000/svg" xmlns:xlink="http://www.w3.org/1999/xlink" width="14.506348" height="19.341764" fill="none" customFrame="#000000">
	<path id="outline" d="M12.8945 13.1877C12.8945 15.4582 10.6273 17.7299 7.25316 17.7299C3.87905 17.7299 1.61181 15.4582 1.61181 13.1877C1.61181 10.8327 3.14352 7.89982 4.94385 5.34663C5.75756 4.19264 6.57422 3.18743 7.21284 2.44487C7.86362 3.24546 8.70805 4.33528 9.54942 5.56521C10.4267 6.84758 11.2799 8.25234 11.9086 9.61951C12.5488 11.0117 12.8945 12.2342 12.8945 13.1877ZM0 13.1877C0 8.80613 4.13529 3.52259 6.16098 1.19728C6.81805 0.443011 7.25316 0 7.25316 0C7.25316 0 7.67 0.460792 8.30383 1.23267C10.3139 3.68057 14.5063 9.25723 14.5063 13.1877C14.5063 16.5865 11.259 19.3418 7.25316 19.3418C3.24735 19.3418 0 16.5865 0 13.1877ZM3.62524 10.4768L5.35921 10.4768C5.03296 11.2214 4.83544 11.9275 4.83544 12.5283C4.83544 13.4507 5.73776 14.5063 7.25316 14.5063L7.25316 16.1181C5.02771 16.1181 3.22363 14.5109 3.22363 12.5283C3.22363 11.8667 3.37756 11.1698 3.62524 10.4768Z" fill="rgb(255,255,255)" fill-rule="evenodd" />
</svg>
