<svg viewBox="0 0 32 32" xmlns="http://www.w3.org/2000/svg" xmlns:xlink="http://www.w3.org/1999/xlink" width="32.000000" height="32.000000" fill="none">
	<defs>
		<clipPath id="clipPath_1">
			<rect width="32.000000" height="32.000000" x="0.000000" y="0.000000" fill="rgb(255,255,255)" />
		</clipPath>
	</defs>
	<rect id="Color=Off" width="32.000000" height="32.000000" x="0.000000" y="0.000000" />
	<g id="32icon-grid" opacity="0" clip-path="url(#clipPath_1)" customFrame="url(#clipPath_1)">
		<rect id="32icon-grid" width="32.000000" height="32.000000" x="0.000000" y="0.000000" opacity="0" fill="rgb(255,255,255)" fill-opacity="0" />
		<g id="Group 156" opacity="0.899999976">
			<rect id="Rectangle 908" width="20.000000" height="28.000000" x="6.000000" y="2.000000" fill="rgb(196,196,196)" fill-opacity="0" />
			<rect id="Rectangle 908" width="20.000000" height="28.000000" x="6.000000" y="2.000000" stroke="rgb(248,204,213)" stroke-opacity="0.330000013" stroke-width="0.100000001" />
			<rect id="Rectangle 911" width="16.000000" height="16.000000" x="8.000000" y="8.000000" fill="rgb(196,196,196)" fill-opacity="0" />
			<rect id="Rectangle 911" width="16.000000" height="16.000000" x="8.000000" y="8.000000" stroke="rgb(248,204,213)" stroke-opacity="0.330000013" stroke-width="0.100000001" />
			<path id="Rectangle 909" d="M30 6L30 26L2 26L2 6L30 6Z" fill="rgb(196,196,196)" fill-opacity="0" fill-rule="nonzero" />
			<path id="Rectangle 909" d="M30 26L2 26L2 6L30 6L30 26Z" fill-rule="nonzero" stroke="rgb(248,204,213)" stroke-opacity="0.330000013" stroke-width="0.100000001" />
			<path id="Rectangle 910" d="M28 4L28 28L4 28L4 4L28 4Z" fill="rgb(196,196,196)" fill-opacity="0" fill-rule="nonzero" />
			<path id="Rectangle 910" d="M28 28L4 28L4 4L28 4L28 28Z" fill-rule="nonzero" stroke="rgb(248,204,213)" stroke-opacity="0.330000013" stroke-width="0.100000001" />
			<circle id="Ellipse 48" cx="16" cy="16" r="14" fill="rgb(196,196,196)" fill-opacity="0" />
			<circle id="Ellipse 48" cx="16" cy="16" r="14" stroke="rgb(248,204,213)" stroke-opacity="0.330000013" stroke-width="0.100000001" />
			<circle id="Ellipse 46" cx="16" cy="16" r="8" fill="rgb(196,196,196)" fill-opacity="0" />
			<circle id="Ellipse 46" cx="16" cy="16" r="8" stroke="rgb(248,204,213)" stroke-opacity="0.330000013" stroke-width="0.100000001" />
			<path id="Vector 25" d="M0 0L32 32" stroke="rgb(248,204,213)" stroke-opacity="0.330000013" stroke-width="0.100000001" />
			<path id="Vector 27" d="M0 0L32 0" stroke="rgb(248,204,213)" stroke-opacity="0.330000013" stroke-width="0.100000001" transform="matrix(2.07388e-07,1,-1,2.56035e-07,16,0)" />
			<path id="Vector 29" d="M0 0L32 0" stroke="rgb(248,204,213)" stroke-opacity="0.330000013" stroke-width="0.100000001" transform="matrix(2.07388e-07,1,-1,2.56035e-07,11,0)" />
			<path id="Vector 32" d="M0 0L32 0" stroke="rgb(248,204,213)" stroke-opacity="0.330000013" stroke-width="0.100000001" transform="matrix(-1,1.68048e-07,-2.07466e-07,-1,32,11)" />
			<path id="Vector 30" d="M0 0L32 0" stroke="rgb(248,204,213)" stroke-opacity="0.330000013" stroke-width="0.100000001" transform="matrix(2.07388e-07,1,-1,2.56035e-07,21,0)" />
			<path id="Vector 33" d="M0 0L32 0" stroke="rgb(248,204,213)" stroke-opacity="0.330000013" stroke-width="0.100000001" transform="matrix(-1,1.68048e-07,-2.07466e-07,-1,32,21)" />
			<path id="Vector 28" d="M0 0L32 0" stroke="rgb(248,204,213)" stroke-opacity="0.330000013" stroke-width="0.100000001" transform="matrix(-1,-3.93402e-08,4.85682e-08,-1,32,16)" />
			<path id="Vector 26" d="M0 0L32 32" stroke="rgb(248,204,213)" stroke-opacity="0.330000013" stroke-width="0.100000001" transform="matrix(-1,0,0,1,32,0)" />
		</g>
	</g>
	<path id="for edit" d="M17 5L17 2L15 2L15 5L17 5ZM11.366 5.97381L9.86603 3.37573L8.13397 4.37573L9.63397 6.97381L11.366 5.97381ZM22.3661 6.97381L23.8661 4.37573L22.134 3.37573L20.634 5.97381L22.3661 6.97381ZM25 16C25 11.0294 20.9706 7 16 7C11.0294 7 7 11.0294 7 16C7 16.1642 7.0044 16.3274 7.01308 16.4894C5.18397 17.8571 4 20.0402 4 22.4998C4 26.6419 7.35787 29.9998 11.5 29.9998C11.5129 29.9998 11.5258 29.9997 11.5388 29.9997L11.5388 29.9998L18.9634 29.9998C18.9756 29.9998 18.9878 29.9999 19 29.9999C21.7614 29.9999 24 27.7613 24 24.9999C24 23.7938 23.573 22.6875 22.8619 21.8239C24.1955 20.2542 25 18.221 25 16ZM21.3087 20.5636C21.5129 20.3271 21.6996 20.0791 21.8687 19.8197C22.0937 19.4747 22.2877 19.1095 22.4507 18.7241C22.6086 18.351 22.7324 17.97 22.8222 17.5811L22.8222 17.5809C22.9407 17.0676 23 16.5407 23 16C23 15.4596 22.9408 14.9329 22.8224 14.4199L22.8222 14.4189L22.8221 14.4188C22.7323 14.03 22.6085 13.649 22.4507 13.2759C22.2877 12.8905 22.0937 12.5253 21.8687 12.1803L21.8687 12.1802C21.6049 11.7758 21.2986 11.3991 20.9497 11.0503C20.6009 10.7014 20.2242 10.3951 19.8198 10.1313C19.4748 9.90632 19.1095 9.7123 18.7241 9.54927C18.3509 9.39144 17.9699 9.26762 17.5811 9.17782C17.0677 9.05927 16.5407 9 16 9C15.4593 9 14.9323 9.05927 14.419 9.1778L14.419 9.1778L14.419 9.17781C14.0301 9.26761 13.6491 9.39143 13.2759 9.54927C12.8905 9.7123 12.5252 9.90631 12.1802 10.1313C11.7758 10.3951 11.3991 10.7014 11.0503 11.0503C10.7014 11.3991 10.395 11.7758 10.1313 12.1802L10.1313 12.1802C9.9063 12.5253 9.7123 12.8905 9.54927 13.2759C9.39143 13.6491 9.26761 14.0301 9.1778 14.419L9.17779 14.4191C9.10216 14.7466 9.05066 15.0797 9.02329 15.4183C9.79865 15.1472 10.6321 14.9998 11.5 14.9998C14.7721 14.9998 17.5548 17.0951 18.5794 20.0173C17.8893 20.0747 17.239 20.2724 16.657 20.5816C16.6292 20.5072 16.5998 20.4332 16.5686 20.3595C16.4412 20.0583 16.2897 19.7727 16.1141 19.5029L16.1139 19.5027C15.9061 19.1834 15.6645 18.886 15.3891 18.6107C15.1138 18.3354 14.8165 18.0938 14.4973 17.886L14.4969 17.8857L14.4963 17.8853C14.2266 17.7099 13.9412 17.5585 13.6402 17.4312C13.35 17.3084 13.0537 17.2118 12.7512 17.1415L12.7512 17.1415C12.3451 17.047 11.9281 16.9998 11.5 16.9998C11.072 16.9998 10.6551 17.047 10.249 17.1414L10.2488 17.1415C9.94636 17.2118 9.65002 17.3084 9.35977 17.4312C9.05852 17.5586 8.77296 17.7101 8.5031 17.8857L8.50285 17.8859L8.50283 17.8859L8.50281 17.8859C8.18354 18.0938 7.88624 18.3353 7.61092 18.6107C7.33552 18.8861 7.09389 19.1834 6.88603 19.5028L6.88596 19.5029C6.71032 19.7728 6.55881 20.0583 6.4314 20.3595C6.30863 20.6498 6.21207 20.9461 6.14171 21.2486L6.14168 21.2487C6.04723 21.6547 6 22.0718 6 22.4998C6 22.9278 6.04724 23.3449 6.14171 23.751L6.14172 23.751C6.21208 24.0534 6.30864 24.3498 6.4314 24.64C6.55882 24.9413 6.71036 25.2268 6.88601 25.4967L6.88604 25.4967C7.09391 25.8161 7.33553 26.1135 7.61092 26.3889C7.88628 26.6642 8.18363 26.9058 8.50294 27.1137L8.50314 27.1138C8.77299 27.2894 9.05854 27.441 9.35977 27.5684C9.65 27.6911 9.94633 27.7877 10.2488 27.8581C10.6548 27.9525 11.0719 27.9998 11.5 27.9998C11.5283 27.9998 11.5565 27.9996 11.5847 27.9992L18.932 27.9992C18.945 27.9994 18.958 27.9996 18.971 27.9998L19 27.9998L19 27.9999C19.2404 27.9999 19.4742 27.9727 19.7015 27.9183C19.8599 27.8804 20.0151 27.8293 20.1671 27.765C20.328 27.6969 20.4808 27.6162 20.6254 27.5228C20.803 27.4081 20.9684 27.2742 21.1213 27.1212C21.2743 26.9682 21.4082 26.8029 21.5229 26.6253C21.6163 26.4807 21.697 26.3279 21.7651 26.167C21.8294 26.015 21.8805 25.8598 21.9184 25.7014C21.9728 25.4741 22 25.2402 22 24.9999C22 24.7595 21.9728 24.5257 21.9184 24.2984C21.8805 24.14 21.8294 23.9848 21.7651 23.8328C21.697 23.6718 21.6163 23.5191 21.5229 23.3746C21.4082 23.1969 21.2743 23.0315 21.1213 22.8786C20.9684 22.7256 20.8031 22.5917 20.6254 22.477C20.4808 22.3836 20.3281 22.3029 20.1671 22.2348C20.0151 22.1705 19.8599 22.1194 19.7015 22.0815L19.7001 22.0811C19.4732 22.027 19.2398 21.9999 19 21.9999C18.7597 21.9999 18.5259 22.0271 18.2986 22.0815L18.2985 22.0815C18.1401 22.1194 17.9849 22.1705 17.8329 22.2348C17.672 22.3029 17.5192 22.3836 17.3747 22.477C17.2422 22.5625 17.1166 22.6587 16.9979 22.7655C17.0021 22.6775 17.0042 22.589 17.0042 22.5C17.0042 21.8247 16.8825 21.1779 16.6598 20.5802C17.358 20.2097 18.1545 19.9999 19 19.9999C19.8328 19.9999 20.6181 20.2035 21.3087 20.5636ZM6.97375 9.63397L4.37567 8.13397L3.37567 9.86603L5.97375 11.366L6.97375 9.63397ZM26.0263 11.366L28.6243 9.86603L27.6243 8.13397L25.0263 9.63397L26.0263 11.366ZM2 17L5 17L5 15L2 15L2 17ZM27 17L30 17L30 15L27 15L27 17ZM28.6244 22.134L26.0263 20.634L25.0263 22.366L27.6244 23.866L28.6244 22.134Z" opacity="0" fill="rgb(51.8936,51.4781,72.25)" fill-rule="evenodd" />
	<path id="outline" d="M15 5L15 2L17 2L17 5L15 5ZM22.8619 21.8239C23.573 22.6875 24 23.7938 24 24.9999C24 27.7613 21.7614 29.9999 19 29.9999L18.9634 29.9998L11.5388 29.9998L11.5388 29.9997L11.5 29.9998C7.35787 29.9998 4 26.6419 4 22.4998C4 20.0402 5.18397 17.8571 7.01308 16.4894C7.0044 16.3274 7 16.1642 7 16C7 11.0294 11.0294 7 16 7C20.9706 7 25 11.0294 25 16C25 18.221 24.1955 20.2542 22.8619 21.8239ZM21.3082 20.5634C20.6177 20.2034 19.8326 19.9999 19 19.9999C18.1545 19.9999 17.358 20.2097 16.6598 20.5802C16.8825 21.1779 17.0042 21.8247 17.0042 22.5C17.0042 22.5891 17.0021 22.6776 16.9979 22.7657C17.5289 22.2895 18.2306 21.9999 19 21.9999C20.6569 21.9999 22 23.343 22 24.9999C22 26.6567 20.6569 27.9999 19 27.9999L19 27.9998L18.9716 27.9998L18.9332 27.9992L11.5833 27.9992C11.5556 27.9996 11.5278 27.9998 11.5 27.9998C8.46244 27.9998 6 25.5373 6 22.4998C6 19.4622 8.46244 16.9998 11.5 16.9998C13.8631 16.9998 15.878 18.49 16.6564 20.5819C17.2385 20.2725 17.889 20.0748 18.5794 20.0173C17.5548 17.0951 14.7721 14.9998 11.5 14.9998C10.6323 14.9998 9.79904 15.1471 9.02384 15.4181C9.31956 11.8244 12.3299 9 16 9C19.866 9 23 12.134 23 16C23 17.7434 22.3626 19.338 21.3082 20.5634ZM30 15L27 15L27 17L30 17L30 15ZM25.0263 9.63397L27.6243 8.13397L28.6243 9.86603L26.0263 11.366L25.0263 9.63397ZM22.134 3.37573L20.634 5.97381L22.3661 6.97381L23.8661 4.37573L22.134 3.37573ZM9.63397 6.97381L8.13397 4.37573L9.86603 3.37573L11.366 5.97381L9.63397 6.97381ZM3.37567 9.86603L5.97375 11.366L6.97375 9.63397L4.37567 8.13397L3.37567 9.86603ZM2 15L5 15L5 17L2 17L2 15ZM25.0263 22.366L27.6244 23.866L28.6244 22.134L26.0263 20.634L25.0263 22.366Z" fill="rgb(255,255,255)" fill-rule="evenodd" />
</svg>
