<svg viewBox="0 0 32 32" xmlns="http://www.w3.org/2000/svg" xmlns:xlink="http://www.w3.org/1999/xlink" width="32.000000" height="32.000000" fill="none">
	<defs>
		<clipPath id="clipPath_0">
			<rect width="32.000000" height="32.000000" x="0.000000" y="0.000000" fill="rgb(255,255,255)" />
		</clipPath>
	</defs>
	<rect id="Color=Off" width="32.000000" height="32.000000" x="0.000000" y="0.000000" />
	<g id="32icon-grid" opacity="0" clip-path="url(#clipPath_0)" customFrame="url(#clipPath_0)">
		<rect id="32icon-grid" width="32.000000" height="32.000000" x="0.000000" y="0.000000" opacity="0" fill="rgb(255,255,255)" fill-opacity="0" />
		<g id="Group 156" opacity="0.899999976">
			<rect id="Rectangle 908" width="20.000000" height="28.000000" x="6.000000" y="2.000000" fill="rgb(196,196,196)" fill-opacity="0" />
			<rect id="Rectangle 908" width="20.000000" height="28.000000" x="6.000000" y="2.000000" stroke="rgb(248,204,213)" stroke-opacity="0.330000013" stroke-width="0.100000001" />
			<rect id="Rectangle 911" width="16.000000" height="16.000000" x="8.000000" y="8.000000" fill="rgb(196,196,196)" fill-opacity="0" />
			<rect id="Rectangle 911" width="16.000000" height="16.000000" x="8.000000" y="8.000000" stroke="rgb(248,204,213)" stroke-opacity="0.330000013" stroke-width="0.100000001" />
			<path id="Rectangle 909" d="M30 6L30 26L2 26L2 6L30 6Z" fill="rgb(196,196,196)" fill-opacity="0" fill-rule="nonzero" />
			<path id="Rectangle 909" d="M30 26L2 26L2 6L30 6L30 26Z" fill-rule="nonzero" stroke="rgb(248,204,213)" stroke-opacity="0.330000013" stroke-width="0.100000001" />
			<path id="Rectangle 910" d="M28 4L28 28L4 28L4 4L28 4Z" fill="rgb(196,196,196)" fill-opacity="0" fill-rule="nonzero" />
			<path id="Rectangle 910" d="M28 28L4 28L4 4L28 4L28 28Z" fill-rule="nonzero" stroke="rgb(248,204,213)" stroke-opacity="0.330000013" stroke-width="0.100000001" />
			<circle id="Ellipse 48" cx="16" cy="16" r="14" fill="rgb(196,196,196)" fill-opacity="0" />
			<circle id="Ellipse 48" cx="16" cy="16" r="14" stroke="rgb(248,204,213)" stroke-opacity="0.330000013" stroke-width="0.100000001" />
			<circle id="Ellipse 46" cx="16" cy="16" r="8" fill="rgb(196,196,196)" fill-opacity="0" />
			<circle id="Ellipse 46" cx="16" cy="16" r="8" stroke="rgb(248,204,213)" stroke-opacity="0.330000013" stroke-width="0.100000001" />
			<path id="Vector 25" d="M0 0L32 32" stroke="rgb(248,204,213)" stroke-opacity="0.330000013" stroke-width="0.100000001" />
			<path id="Vector 27" d="M0 0L32 0" stroke="rgb(248,204,213)" stroke-opacity="0.330000013" stroke-width="0.100000001" transform="matrix(2.07388e-07,1,-1,2.56035e-07,16,0)" />
			<path id="Vector 29" d="M0 0L32 0" stroke="rgb(248,204,213)" stroke-opacity="0.330000013" stroke-width="0.100000001" transform="matrix(2.07388e-07,1,-1,2.56035e-07,11,0)" />
			<path id="Vector 32" d="M0 0L32 0" stroke="rgb(248,204,213)" stroke-opacity="0.330000013" stroke-width="0.100000001" transform="matrix(-1,1.68048e-07,-2.07466e-07,-1,32,11)" />
			<path id="Vector 30" d="M0 0L32 0" stroke="rgb(248,204,213)" stroke-opacity="0.330000013" stroke-width="0.100000001" transform="matrix(2.07388e-07,1,-1,2.56035e-07,21,0)" />
			<path id="Vector 33" d="M0 0L32 0" stroke="rgb(248,204,213)" stroke-opacity="0.330000013" stroke-width="0.100000001" transform="matrix(-1,1.68048e-07,-2.07466e-07,-1,32,21)" />
			<path id="Vector 28" d="M0 0L32 0" stroke="rgb(248,204,213)" stroke-opacity="0.330000013" stroke-width="0.100000001" transform="matrix(-1,-3.93402e-08,4.85682e-08,-1,32,16)" />
			<path id="Vector 26" d="M0 0L32 32" stroke="rgb(248,204,213)" stroke-opacity="0.330000013" stroke-width="0.100000001" transform="matrix(-1,0,0,1,32,0)" />
		</g>
	</g>
	<path id="for edit" d="M21.1087 2.29432C20.2706 2.10178 19.3973 2 18.5001 2C12.1488 2 7.00007 7.09996 7.00007 13.3911C7.00007 14.1081 7.06695 14.8097 7.19487 15.49C4.17772 16.4531 1.99487 19.257 1.99487 22.5659C1.99487 26.671 5.3545 29.9988 9.4988 29.9988L9.5051 29.9988L9.5051 30.0002L16.7243 30.0002C16.8165 30.0053 16.9093 30.0079 17.0028 30.0079C19.7657 30.0079 22.0054 27.7681 22.0054 25.0053C22.0054 24.7522 21.9866 24.5035 21.9504 24.2606C26.6159 22.809 30.0001 18.4915 30.0001 13.3911C30.0001 12.095 29.7815 10.8494 29.379 9.68862C29.081 10.4128 28.6407 11.0648 28.0923 11.611C26.9887 12.6959 25.5567 13.2636 24.1094 13.3105C22.5187 13.3638 21.0525 12.7886 19.9534 11.8114C18.7676 10.7596 18.1108 9.33945 17.9999 7.88068C17.8803 6.33283 18.3806 4.87867 19.2912 3.75541C19.7909 3.15737 20.4084 2.65881 21.1087 2.29432ZM21.2623 22.3805C21.58 22.2848 21.8938 22.1721 22.2036 22.0423C22.7604 21.809 23.2862 21.5286 23.7807 21.2011C24.2957 20.8601 24.7769 20.468 25.2243 20.0248C25.7187 19.5352 26.1498 19.0049 26.5179 18.4338C26.8018 17.9933 27.0482 17.5285 27.257 17.0396C27.4784 16.5211 27.6503 15.9915 27.7727 15.4507L27.7728 15.4506C27.8647 15.0446 27.9287 14.6324 27.9649 14.2138C26.8509 14.8684 25.5601 15.2621 24.1754 15.3058C22.1978 15.3704 20.1931 14.7093 18.6072 13.2971C17.1341 11.9882 16.1485 10.137 15.9901 8.03054C15.8904 6.72584 16.1165 5.39553 16.681 4.17017C16.5605 4.19322 16.4405 4.2186 16.3211 4.24633L16.3211 4.24634L16.3211 4.24634L16.3211 4.24634C15.8027 4.36672 15.2945 4.53121 14.7966 4.73982C14.2397 4.97314 13.7139 5.25355 13.2194 5.58104L13.2193 5.58106L13.2193 5.58107L13.2193 5.58108C12.7043 5.9221 12.2232 6.31417 11.7758 6.75729C11.2815 7.24687 10.8504 7.77712 10.4824 8.34806L10.4824 8.34811L10.4823 8.34814L10.4822 8.3484C10.1982 8.78891 9.9519 9.25363 9.74312 9.74256C9.52174 10.261 9.34983 10.7907 9.22738 11.3315L9.22738 11.3315L9.22726 11.332C9.0758 12.0012 9.00006 12.6876 9.00006 13.3911C9.00006 13.9865 9.05431 14.5696 9.1628 15.1404C9.27419 15.1355 9.3862 15.1331 9.4988 15.1331C12.7413 15.1331 15.5034 17.1701 16.552 20.0227C16.7005 20.0094 16.8508 20.0026 17.0028 20.0026C18.803 20.0026 20.3812 20.9535 21.2623 22.3805ZM12.9954 28.0002L12.9881 28.0002L12.9869 27.9987L9.52541 27.9987L9.4988 27.9988C9.05895 27.9988 8.63071 27.9496 8.21409 27.8512L8.21406 27.8512L8.21357 27.8511C7.92021 27.7818 7.6326 27.6881 7.35076 27.57C7.02888 27.4351 6.72497 27.2731 6.43901 27.084L6.43802 27.0833C6.1391 26.8855 5.85983 26.658 5.60019 26.4008C5.30986 26.1132 5.05721 25.8015 4.84222 25.4657L4.84219 25.4657L4.84217 25.4656C4.68177 25.2151 4.54235 24.9511 4.4239 24.6737C4.29804 24.379 4.19988 24.0779 4.1294 23.7704C4.03972 23.3792 3.99487 22.9777 3.99487 22.5659C3.99487 22.1541 4.03971 21.7526 4.1294 21.3614L4.12941 21.3613C4.19988 21.0539 4.29805 20.7528 4.4239 20.4581C4.54237 20.1807 4.68182 19.9167 4.84224 19.6661C5.05722 19.3303 5.30987 19.0186 5.60019 18.731C5.86014 18.4735 6.13976 18.2458 6.43906 18.0478C6.725 17.8587 7.0289 17.6967 7.35076 17.5618C7.63272 17.4437 7.92044 17.35 8.21392 17.2807L8.21401 17.2806L8.21406 17.2806L8.21435 17.2806C8.63089 17.1822 9.05904 17.1331 9.4988 17.1331C9.93843 17.1331 10.3665 17.1822 10.7829 17.2805L10.783 17.2805L10.7835 17.2806L10.7835 17.2806L10.7836 17.2806C11.0771 17.3499 11.3648 17.4437 11.6468 17.5618C11.9687 17.6967 12.2726 17.8587 12.5586 18.0479C12.8579 18.2458 13.1375 18.4736 13.3974 18.731C13.6875 19.0184 13.94 19.3298 14.1549 19.6654L14.155 19.6656L14.1553 19.6659L14.1553 19.6661L14.1555 19.6664C14.3159 19.9169 14.4553 20.1808 14.5737 20.4581C14.603 20.5268 14.6309 20.5959 14.6572 20.6653L14.6613 20.6632C14.8841 21.2556 15.0059 21.8968 15.0059 22.5661C15.0059 22.633 15.0047 22.6996 15.0023 22.7659C15.1201 22.6602 15.2447 22.565 15.376 22.4802C15.5207 22.3867 15.6736 22.3059 15.8347 22.2378C15.9868 22.1734 16.1422 22.1223 16.3007 22.0843L16.3007 22.0843C16.5282 22.0299 16.7623 22.0026 17.0028 22.0026C17.2433 22.0026 17.4774 22.0299 17.7049 22.0843L17.7052 22.0844C17.8636 22.1223 18.0188 22.1735 18.1709 22.2378C18.332 22.3059 18.4848 22.3867 18.6295 22.4801L18.6296 22.4802C18.8074 22.595 18.9729 22.729 19.126 22.8821C19.2791 23.0352 19.413 23.2006 19.5279 23.3785C19.6214 23.5232 19.7022 23.676 19.7703 23.8371C19.8346 23.9893 19.8858 24.1446 19.9237 24.3031C19.9782 24.5307 20.0054 24.7647 20.0054 25.0053C20.0054 25.2458 19.9782 25.4798 19.9237 25.7073C19.8858 25.8658 19.8346 26.0212 19.7703 26.1734C19.7022 26.3345 19.6214 26.4873 19.5279 26.6321C19.413 26.8099 19.2791 26.9753 19.126 27.1284C18.9729 27.2815 18.8074 27.4155 18.6296 27.5303L18.6294 27.5305C18.4847 27.6239 18.3319 27.7046 18.1709 27.7727C18.0188 27.8371 17.8635 27.8882 17.7051 27.9261L17.7049 27.9262L17.7047 27.9262C17.4772 27.9807 17.2433 28.0079 17.0028 28.0079L17.0001 28.0079L17.0001 28.0002L16.7842 28.0002C16.7772 27.9998 16.7702 27.9992 16.7632 27.9987L12.9943 27.9987L12.9954 28.0002Z" opacity="0" fill="rgb(51.8936,51.4781,72.25)" fill-rule="evenodd" />
	<path id="outline" d="M24.1091 13.312C25.6078 13.2633 27.031 12.6543 28.0936 11.6095C28.6413 11.0636 29.0811 10.4121 29.3787 9.68862C29.7813 10.8494 29.9998 12.095 29.9998 13.3911C29.9998 18.4915 26.6156 22.809 21.9501 24.2606C21.9864 24.5035 22.0052 24.7522 22.0052 25.0053C22.0052 27.7681 19.7654 30.0079 17.0026 30.0079C16.9091 30.0079 16.8162 30.0053 16.724 30.0002L9.50485 30.0002L9.50485 29.9988L9.49856 29.9988C5.35425 29.9988 1.99463 26.671 1.99463 22.5659C1.99463 19.257 4.17748 16.4531 7.19463 15.49C7.06671 14.8097 6.99982 14.1081 6.99982 13.3911C6.99982 7.09996 12.1485 2 18.4998 2C19.3971 2 20.2703 2.10178 21.1084 2.29432C20.407 2.65945 19.7885 3.15913 19.2883 3.75857C18.3465 4.92001 17.8847 6.39337 17.998 7.88067C18.1132 9.39175 18.8133 10.8004 19.952 11.8124C21.0907 12.8245 22.5801 13.3618 24.1091 13.312ZM9.16461 15.1403C9.27532 15.1355 9.38665 15.1331 9.49856 15.1331C12.741 15.1331 15.5031 17.1701 16.5517 20.0227C16.7002 20.0094 16.8506 20.0026 17.0026 20.0026C18.8024 20.0026 20.3803 20.9532 21.2616 22.3797C24.9137 21.2852 27.6239 18.0768 27.9638 14.2139C26.8233 14.8826 25.5221 15.2641 24.1754 15.3079C22.1268 15.3745 20.1313 14.6547 18.6057 13.2987C17.08 11.9427 16.1421 10.0554 15.9878 8.03086C15.886 6.69604 16.1301 5.3696 16.6816 4.17153C12.2932 5.0113 8.99982 8.8333 8.99982 13.3911C8.99982 13.9885 9.0564 14.5732 9.16461 15.1403ZM9.52478 27.9987L9.49856 27.9988C6.44083 27.9988 3.99463 25.5485 3.99463 22.5659C3.99463 19.5833 6.44083 17.1331 9.49856 17.1331C11.8724 17.1331 13.8776 18.6098 14.6559 20.6659L14.661 20.6632C14.8839 21.2556 15.0057 21.8968 15.0057 22.5661C15.0057 22.6331 15.0044 22.6998 15.002 22.7661C15.5331 22.2913 16.2341 22.0026 17.0026 22.0026C18.6609 22.0026 20.0052 23.347 20.0052 25.0053C20.0052 26.6636 18.6609 28.0079 17.0026 28.0079L16.9998 28.0079L16.9998 28.0002L16.7869 28.0002L16.7661 27.9987L12.994 27.9987L12.9952 28.0002L12.9878 28.0002L12.9867 27.9987L9.52478 27.9987Z" fill="rgb(255,255,255)" fill-rule="evenodd" />
</svg>

