<svg viewBox="0 0 32 32" xmlns="http://www.w3.org/2000/svg" xmlns:xlink="http://www.w3.org/1999/xlink" width="32.000000" height="32.000000" fill="none">
	<defs>
		<clipPath id="clipPath_2">
			<rect width="32.000000" height="32.000000" x="0.000000" y="0.000000" fill="rgb(255,255,255)" />
		</clipPath>
	</defs>
	<rect id="Color=Off" width="32.000000" height="32.000000" x="0.000000" y="0.000000" />
	<g id="32icon-grid" opacity="0" clip-path="url(#clipPath_2)" customFrame="url(#clipPath_2)">
		<rect id="32icon-grid" width="32.000000" height="32.000000" x="0.000000" y="0.000000" opacity="0" fill="rgb(255,255,255)" fill-opacity="0" />
		<g id="Group 156" opacity="0.899999976">
			<rect id="Rectangle 908" width="20.000000" height="28.000000" x="6.000000" y="2.000000" fill="rgb(196,196,196)" fill-opacity="0" />
			<rect id="Rectangle 908" width="20.000000" height="28.000000" x="6.000000" y="2.000000" stroke="rgb(248,204,213)" stroke-opacity="0.330000013" stroke-width="0.100000001" />
			<rect id="Rectangle 911" width="16.000000" height="16.000000" x="8.000000" y="8.000000" fill="rgb(196,196,196)" fill-opacity="0" />
			<rect id="Rectangle 911" width="16.000000" height="16.000000" x="8.000000" y="8.000000" stroke="rgb(248,204,213)" stroke-opacity="0.330000013" stroke-width="0.100000001" />
			<path id="Rectangle 909" d="M30 6L30 26L2 26L2 6L30 6Z" fill="rgb(196,196,196)" fill-opacity="0" fill-rule="nonzero" />
			<path id="Rectangle 909" d="M30 26L2 26L2 6L30 6L30 26Z" fill-rule="nonzero" stroke="rgb(248,204,213)" stroke-opacity="0.330000013" stroke-width="0.100000001" />
			<path id="Rectangle 910" d="M28 4L28 28L4 28L4 4L28 4Z" fill="rgb(196,196,196)" fill-opacity="0" fill-rule="nonzero" />
			<path id="Rectangle 910" d="M28 28L4 28L4 4L28 4L28 28Z" fill-rule="nonzero" stroke="rgb(248,204,213)" stroke-opacity="0.330000013" stroke-width="0.100000001" />
			<circle id="Ellipse 48" cx="16" cy="16" r="14" fill="rgb(196,196,196)" fill-opacity="0" />
			<circle id="Ellipse 48" cx="16" cy="16" r="14" stroke="rgb(248,204,213)" stroke-opacity="0.330000013" stroke-width="0.100000001" />
			<circle id="Ellipse 46" cx="16" cy="16" r="8" fill="rgb(196,196,196)" fill-opacity="0" />
			<circle id="Ellipse 46" cx="16" cy="16" r="8" stroke="rgb(248,204,213)" stroke-opacity="0.330000013" stroke-width="0.100000001" />
			<path id="Vector 25" d="M0 0L32 32" stroke="rgb(248,204,213)" stroke-opacity="0.330000013" stroke-width="0.100000001" />
			<path id="Vector 27" d="M0 0L32 0" stroke="rgb(248,204,213)" stroke-opacity="0.330000013" stroke-width="0.100000001" transform="matrix(2.07388e-07,1,-1,2.56035e-07,16,0)" />
			<path id="Vector 29" d="M0 0L32 0" stroke="rgb(248,204,213)" stroke-opacity="0.330000013" stroke-width="0.100000001" transform="matrix(2.07388e-07,1,-1,2.56035e-07,11,0)" />
			<path id="Vector 32" d="M0 0L32 0" stroke="rgb(248,204,213)" stroke-opacity="0.330000013" stroke-width="0.100000001" transform="matrix(-1,1.68048e-07,-2.07466e-07,-1,32,11)" />
			<path id="Vector 30" d="M0 0L32 0" stroke="rgb(248,204,213)" stroke-opacity="0.330000013" stroke-width="0.100000001" transform="matrix(2.07388e-07,1,-1,2.56035e-07,21,0)" />
			<path id="Vector 33" d="M0 0L32 0" stroke="rgb(248,204,213)" stroke-opacity="0.330000013" stroke-width="0.100000001" transform="matrix(-1,1.68048e-07,-2.07466e-07,-1,32,21)" />
			<path id="Vector 28" d="M0 0L32 0" stroke="rgb(248,204,213)" stroke-opacity="0.330000013" stroke-width="0.100000001" transform="matrix(-1,-3.93402e-08,4.85682e-08,-1,32,16)" />
			<path id="Vector 26" d="M0 0L32 32" stroke="rgb(248,204,213)" stroke-opacity="0.330000013" stroke-width="0.100000001" transform="matrix(-1,0,0,1,32,0)" />
		</g>
	</g>
	<path id="for edit" d="M22.821 10.0139C21.5661 5.38977 17.469 2 12.6083 2C6.74949 2 2 6.92487 2 13C2 18.1419 5.40237 22.4598 10 23.665L10 21.5806C9.75825 21.5 9.51904 21.4078 9.28236 21.304C8.91377 21.1423 8.56009 20.9566 8.22133 20.7468C7.61541 20.3715 7.05721 19.9192 6.54671 19.3898C6.20073 19.0311 5.88844 18.6492 5.60981 18.2441C5.24351 17.7115 4.93541 17.1389 4.68552 16.5263C4.50867 16.0928 4.36604 15.651 4.25763 15.2009L4.25762 15.2009L4.25762 15.2009L4.25761 15.2009L4.2576 15.2008C4.08587 14.4879 4 13.7543 4 13C4 12.2457 4.08587 11.512 4.25762 10.7991L4.25762 10.7991L4.25763 10.7991C4.36604 10.349 4.50867 9.90723 4.68552 9.47368C4.93535 8.86119 5.24338 8.28871 5.60958 7.75625L5.60974 7.75602L5.60975 7.75601L5.60978 7.75596L5.60981 7.75592C5.88843 7.35084 6.20073 6.96893 6.54671 6.61017C7.05724 6.08079 7.6155 5.62845 8.22147 5.25315L8.22148 5.25314C8.5602 5.04336 8.91383 4.85765 9.28236 4.69602C9.78948 4.47361 10.3082 4.3045 10.8386 4.18869L10.8387 4.18869C11.4148 4.0629 12.0047 4 12.6083 4C13.2119 4 13.8018 4.0629 14.3779 4.18869L14.3779 4.18869L14.378 4.1887C14.9084 4.30451 15.4271 4.47361 15.9342 4.69602C16.3027 4.85765 16.6564 5.04336 16.9951 5.25314L16.9952 5.2532C17.6011 5.62849 18.1594 6.08081 18.6699 6.61017C19.0155 6.96861 19.3276 7.35018 19.606 7.75487L19.6061 7.75499L19.6067 7.75589C19.9731 8.28845 20.2812 8.86105 20.5311 9.47368C20.7069 9.90467 20.8488 10.3438 20.957 10.7911L20.9599 10.7899C21.0935 11.3357 21.1787 11.9015 21.2106 12.4821C21.281 12.4469 21.3525 12.4135 21.4249 12.3817C21.7011 12.2606 21.9836 12.1683 22.2724 12.1048L22.2724 12.1048L22.2727 12.1047L22.2728 12.1047C22.5906 12.0349 22.9161 12 23.2493 12C23.5826 12 23.9082 12.0349 24.2262 12.1048C24.515 12.1683 24.7975 12.2606 25.0737 12.3817C25.2646 12.4654 25.4483 12.561 25.6249 12.6683C25.9721 12.8794 26.2915 13.1362 26.5832 13.4386C26.771 13.6334 26.941 13.8405 27.0931 14.06L27.0932 14.06L27.0932 14.0601C27.3014 14.3605 27.4762 14.684 27.6176 15.0307C27.7123 15.2627 27.7893 15.499 27.8488 15.7397L27.8489 15.7399C27.9496 16.1475 28 16.5675 28 17C28 17.4325 27.9496 17.8526 27.8488 18.2603L27.8488 18.2603C27.7893 18.501 27.7123 18.7373 27.6176 18.9693C27.4762 19.316 27.3014 19.6395 27.0932 19.9399L27.0932 19.9399C26.941 20.1594 26.771 20.3666 26.5832 20.5614C26.2915 20.8638 25.9721 21.1205 25.625 21.3316L25.6249 21.3317C25.4483 21.439 25.2646 21.5346 25.0737 21.6183C24.7975 21.7394 24.515 21.8317 24.2262 21.8952L24.2262 21.8952C24.1512 21.9116 24.0758 21.9262 24 21.9388L24 23.9572C27.375 23.57 30 20.6028 30 17C30 13.134 26.9776 10 23.2493 10C23.1054 10 22.9626 10.0047 22.821 10.0139ZM19.5027 27.0021C20.8835 27.0021 22.0025 25.8622 22.0021 24.456C22.0018 23.3379 21.318 21.8977 20.6655 20.7778C20.0698 19.7554 19.5002 19 19.5002 19C19.5002 19 18.9029 19.7302 18.2923 20.7572C17.654 21.8309 17.0013 23.229 17.0017 24.456C17.0021 25.8622 18.1218 27.0021 19.5027 27.0021ZM13.5027 30.0021C14.8835 30.0021 16.0025 28.8622 16.0021 27.456C16.0018 26.3379 15.318 24.8977 14.6655 23.7778C14.0698 22.7554 13.5002 22 13.5002 22C13.5002 22 12.9029 22.7302 12.2923 23.7572C11.654 24.8309 11.0013 26.229 11.0017 27.456C11.0021 28.8622 12.1218 30.0021 13.5027 30.0021ZM19.4742 22.7927C19.5778 23.0107 19.6676 23.2187 19.7435 23.4168C19.9158 23.8661 20.002 24.2126 20.0021 24.456C20.0021 24.5462 19.9849 24.6282 19.9503 24.7021L19.9502 24.7022C19.9242 24.7578 19.8885 24.8087 19.8429 24.8551C19.7873 24.9118 19.7258 24.9521 19.6584 24.976L19.6583 24.9761C19.6093 24.9934 19.5572 25.0021 19.5021 25.0021C19.4469 25.0021 19.3949 24.9934 19.3459 24.9761L19.3458 24.9761C19.2784 24.9522 19.2168 24.9118 19.1611 24.8551C19.1155 24.8087 19.0797 24.7577 19.0537 24.7021L19.0536 24.7021C19.019 24.6281 19.0017 24.5461 19.0017 24.456C19.0016 24.1482 19.089 23.7611 19.264 23.2947C19.3249 23.1323 19.395 22.965 19.4742 22.7927ZM13.4742 25.7927C13.5778 26.0107 13.6676 26.2187 13.7435 26.4168C13.9158 26.8661 14.002 27.2126 14.0021 27.456C14.0021 27.5462 13.9849 27.6282 13.9503 27.7021L13.9502 27.7022C13.9242 27.7578 13.8885 27.8087 13.8429 27.8551C13.7873 27.9118 13.7258 27.9521 13.6584 27.976L13.6583 27.9761C13.6093 27.9934 13.5572 28.0021 13.5021 28.0021C13.4469 28.0021 13.3949 27.9934 13.3459 27.9761L13.3458 27.9761C13.2784 27.9522 13.2168 27.9118 13.1611 27.8551C13.1155 27.8087 13.0797 27.7577 13.0537 27.7021L13.0536 27.702C13.019 27.6281 13.0017 27.5461 13.0017 27.456C13.0016 27.1482 13.089 26.7611 13.264 26.2947C13.3249 26.1323 13.395 25.965 13.4742 25.7927Z" opacity="0" fill="rgb(51.8936,51.4781,72.25)" fill-rule="evenodd" />
	<path id="outline" d="M24 23.9572C27.375 23.57 30 20.6028 30 17C30 13.134 26.9776 10 23.2493 10C23.1054 10 22.9626 10.0047 22.821 10.0139C21.5661 5.38976 17.469 2 12.6083 2C6.74949 2 2 6.92487 2 13C2 18.1419 5.40237 22.4598 10 23.665L10 21.5772C6.55261 20.4291 4 17.0657 4 13C4 7.96046 7.92179 4 12.6083 4C16.5839 4 20.0091 6.85004 20.9569 10.7911L20.9599 10.7899C21.0937 11.3367 21.1791 11.9037 21.2108 12.4855C21.8339 12.1732 22.5272 12 23.2493 12C25.8053 12 28 14.1696 28 17C28 19.5486 26.2205 21.5615 24 21.937L24 23.9572ZM13.5021 28.0021C13.7442 28.0021 14.0022 27.7921 14.0021 27.456C14.0021 27.272 13.9389 26.9263 13.7435 26.4168C13.6656 26.2136 13.5746 26.0045 13.4744 25.7938C13.1753 26.4437 13.0015 27.0277 13.0017 27.456C13.0018 27.7921 13.2599 28.0021 13.5021 28.0021ZM12.2923 23.7572C12.9029 22.7302 13.5002 22 13.5002 22C13.5002 22 14.0699 22.7554 14.6655 23.7778C15.318 24.8977 16.0018 26.3379 16.0021 27.456C16.0025 28.8622 14.8835 30.0021 13.5027 30.0021C12.1218 30.0021 11.0021 28.8622 11.0017 27.456C11.0013 26.229 11.654 24.8309 12.2923 23.7572ZM20.0021 24.456C20.0022 24.7921 19.7442 25.0021 19.5021 25.0021C19.2599 25.0021 19.0018 24.7921 19.0017 24.456C19.0015 24.0277 19.1753 23.4437 19.4744 22.7938C19.5746 23.0045 19.6656 23.2136 19.7435 23.4168C19.9389 23.9263 20.0021 24.272 20.0021 24.456ZM19.5002 19C19.5002 19 18.9029 19.7302 18.2923 20.7572C17.654 21.8309 17.0013 23.229 17.0017 24.456C17.0021 25.8622 18.1218 27.0021 19.5027 27.0021C20.8835 27.0021 22.0025 25.8622 22.0021 24.456C22.0018 23.3379 21.318 21.8977 20.6655 20.7778C20.0699 19.7554 19.5002 19 19.5002 19Z" fill="rgb(255,255,255)" fill-rule="evenodd" />
</svg>
