<svg viewBox="0 0 32 32" xmlns="http://www.w3.org/2000/svg" xmlns:xlink="http://www.w3.org/1999/xlink" width="32.000000" height="32.000000" fill="none">
	<defs>
		<clipPath id="clipPath_0">
			<rect width="32.000000" height="32.000000" x="0.000000" y="0.000000" fill="rgb(255,255,255)" />
		</clipPath>
	</defs>
	<rect id="Color=Off" width="32.000000" height="32.000000" x="0.000000" y="0.000000" />
	<g id="32icon-grid" opacity="0" clip-path="url(#clipPath_0)" customFrame="url(#clipPath_0)">
		<rect id="32icon-grid" width="32.000000" height="32.000000" x="0.000000" y="0.000000" opacity="0" fill="rgb(255,255,255)" fill-opacity="0" />
		<g id="Group 156" opacity="0.899999976">
			<rect id="Rectangle 908" width="20.000000" height="28.000000" x="6.000000" y="2.000000" fill="rgb(196,196,196)" fill-opacity="0" />
			<rect id="Rectangle 908" width="20.000000" height="28.000000" x="6.000000" y="2.000000" stroke="rgb(248,204,213)" stroke-opacity="0.330000013" stroke-width="0.100000001" />
			<rect id="Rectangle 911" width="16.000000" height="16.000000" x="8.000000" y="8.000000" fill="rgb(196,196,196)" fill-opacity="0" />
			<rect id="Rectangle 911" width="16.000000" height="16.000000" x="8.000000" y="8.000000" stroke="rgb(248,204,213)" stroke-opacity="0.330000013" stroke-width="0.100000001" />
			<path id="Rectangle 909" d="M30 6L30 26L2 26L2 6L30 6Z" fill="rgb(196,196,196)" fill-opacity="0" fill-rule="nonzero" />
			<path id="Rectangle 909" d="M30 26L2 26L2 6L30 6L30 26Z" fill-rule="nonzero" stroke="rgb(248,204,213)" stroke-opacity="0.330000013" stroke-width="0.100000001" />
			<path id="Rectangle 910" d="M28 4L28 28L4 28L4 4L28 4Z" fill="rgb(196,196,196)" fill-opacity="0" fill-rule="nonzero" />
			<path id="Rectangle 910" d="M28 28L4 28L4 4L28 4L28 28Z" fill-rule="nonzero" stroke="rgb(248,204,213)" stroke-opacity="0.330000013" stroke-width="0.100000001" />
			<circle id="Ellipse 48" cx="16" cy="16" r="14" fill="rgb(196,196,196)" fill-opacity="0" />
			<circle id="Ellipse 48" cx="16" cy="16" r="14" stroke="rgb(248,204,213)" stroke-opacity="0.330000013" stroke-width="0.100000001" />
			<circle id="Ellipse 46" cx="16" cy="16" r="8" fill="rgb(196,196,196)" fill-opacity="0" />
			<circle id="Ellipse 46" cx="16" cy="16" r="8" stroke="rgb(248,204,213)" stroke-opacity="0.330000013" stroke-width="0.100000001" />
			<path id="Vector 25" d="M0 0L32 32" stroke="rgb(248,204,213)" stroke-opacity="0.330000013" stroke-width="0.100000001" />
			<path id="Vector 27" d="M0 0L32 0" stroke="rgb(248,204,213)" stroke-opacity="0.330000013" stroke-width="0.100000001" transform="matrix(2.07388e-07,1,-1,2.56035e-07,16,0)" />
			<path id="Vector 29" d="M0 0L32 0" stroke="rgb(248,204,213)" stroke-opacity="0.330000013" stroke-width="0.100000001" transform="matrix(2.07388e-07,1,-1,2.56035e-07,11,0)" />
			<path id="Vector 32" d="M0 0L32 0" stroke="rgb(248,204,213)" stroke-opacity="0.330000013" stroke-width="0.100000001" transform="matrix(-1,1.68048e-07,-2.07466e-07,-1,32,11)" />
			<path id="Vector 30" d="M0 0L32 0" stroke="rgb(248,204,213)" stroke-opacity="0.330000013" stroke-width="0.100000001" transform="matrix(2.07388e-07,1,-1,2.56035e-07,21,0)" />
			<path id="Vector 33" d="M0 0L32 0" stroke="rgb(248,204,213)" stroke-opacity="0.330000013" stroke-width="0.100000001" transform="matrix(-1,1.68048e-07,-2.07466e-07,-1,32,21)" />
			<path id="Vector 28" d="M0 0L32 0" stroke="rgb(248,204,213)" stroke-opacity="0.330000013" stroke-width="0.100000001" transform="matrix(-1,-3.93402e-08,4.85682e-08,-1,32,16)" />
			<path id="Vector 26" d="M0 0L32 32" stroke="rgb(248,204,213)" stroke-opacity="0.330000013" stroke-width="0.100000001" transform="matrix(-1,0,0,1,32,0)" />
		</g>
	</g>
	<path id="for edit" d="M17 2L17 5L15 5L15 2L17 2ZM9.86603 3.37573L11.366 5.97381L9.63397 6.97381L8.13397 4.37573L9.86603 3.37573ZM23.8661 4.37573L22.3661 6.97381L20.634 5.97381L22.134 3.37573L23.8661 4.37573ZM25 16C25 11.0294 20.9706 7 16 7C11.0294 7 7 11.0294 7 16C7 20.9706 11.0294 25 16 25C20.9706 25 25 20.9706 25 16ZM4.37567 8.13397L6.97375 9.63397L5.97375 11.366L3.37567 9.86603L4.37567 8.13397ZM28.6243 9.86603L26.0263 11.366L25.0263 9.63397L27.6243 8.13397L28.6243 9.86603ZM14.419 9.17781L14.419 9.1778C14.9323 9.05927 15.4593 9 16 9C16.5407 9 17.0677 9.05927 17.5811 9.17782C17.9699 9.26762 18.3509 9.39144 18.7241 9.54927C19.1095 9.7123 19.4748 9.90632 19.8198 10.1313C20.2242 10.3951 20.6009 10.7014 20.9497 11.0503C21.2986 11.3991 21.6049 11.7758 21.8687 12.1802L21.8687 12.1802L21.8687 12.1803C22.0937 12.5253 22.2877 12.8905 22.4507 13.2759C22.6085 13.649 22.7323 14.03 22.8221 14.4188L22.8221 14.4188L22.8222 14.4189L22.8224 14.4198C22.9408 14.9329 23 15.4596 23 16C23 16.5407 22.9407 17.0676 22.8222 17.5809L22.8222 17.5811C22.7324 17.97 22.6086 18.351 22.4507 18.7241C22.2877 19.1095 22.0937 19.4747 21.8687 19.8197L21.8682 19.8205C21.6046 20.2247 21.2984 20.6011 20.9497 20.9497C20.6008 21.2987 20.2241 21.605 19.8197 21.8688L19.8196 21.8688C19.4747 22.0937 19.1095 22.2877 18.7241 22.4507C18.351 22.6085 17.97 22.7323 17.5812 22.8221L17.5811 22.8222L17.5803 22.8224C17.0672 22.9408 16.5404 23 16 23C15.4597 23 14.933 22.9408 14.42 22.8224L14.4189 22.8222L14.4187 22.8221C14.0299 22.7323 13.649 22.6085 13.2759 22.4507C12.8905 22.2877 12.5253 22.0937 12.1803 21.8687L12.1803 21.8687L12.1793 21.8681C11.7752 21.6045 11.3989 21.2984 11.0503 20.9497C10.7014 20.6008 10.395 20.2242 10.1313 19.8197C9.9063 19.4747 9.71229 19.1095 9.54927 18.7241C9.39144 18.3509 9.26762 17.9699 9.17781 17.581L9.17781 17.581L9.1778 17.581C9.05927 17.0677 9 16.5407 9 16C9 15.4593 9.05927 14.9323 9.1778 14.419C9.26761 14.0301 9.39143 13.6491 9.54927 13.2759C9.7123 12.8905 9.9063 12.5253 10.1313 12.1802L10.1313 12.1802C10.3951 11.7758 10.7014 11.3991 11.0503 11.0503C11.399 10.7015 11.7755 10.3953 12.1798 10.1316L12.1802 10.1313C12.5252 9.90631 12.8905 9.7123 13.2759 9.54927C13.6491 9.39143 14.0301 9.26761 14.419 9.17781ZM5 17L2 17L2 15L5 15L5 17ZM30 17L27 17L27 15L30 15L30 17ZM6.97369 22.366L4.37562 23.866L3.37562 22.134L5.97369 20.634L6.97369 22.366ZM26.0263 20.634L28.6244 22.134L27.6244 23.866L25.0263 22.366L26.0263 20.634ZM11.3661 26.0264L9.86609 28.6244L8.13404 27.6244L9.63404 25.0264L11.3661 26.0264ZM22.366 25.0264L23.866 27.6244L22.134 28.6244L20.634 26.0264L22.366 25.0264ZM17 27L17 30L15 30L15 27L17 27Z" opacity="0" fill="rgb(51.8936,51.4781,72.25)" fill-rule="evenodd" />
	<path id="outline" d="M15 5L15 2L17 2L17 5L15 5ZM20.634 5.97381L22.134 3.37573L23.8661 4.37573L22.3661 6.97381L20.634 5.97381ZM16 23C19.866 23 23 19.866 23 16C23 12.134 19.866 9 16 9C12.134 9 9 12.134 9 16C9 19.866 12.134 23 16 23ZM16 25C20.9706 25 25 20.9706 25 16C25 11.0294 20.9706 7 16 7C11.0294 7 7 11.0294 7 16C7 20.9706 11.0294 25 16 25ZM27 15L30 15L30 17L27 17L27 15ZM27.6243 8.13397L25.0263 9.63397L26.0263 11.366L28.6243 9.86603L27.6243 8.13397ZM8.13397 4.37573L9.63397 6.97381L11.366 5.97381L9.86603 3.37573L8.13397 4.37573ZM5.97375 11.366L3.37567 9.86603L4.37567 8.13397L6.97375 9.63397L5.97375 11.366ZM15 27L15 30L17 30L17 27L15 27ZM5 15L2 15L2 17L5 17L5 15ZM3.37562 22.134L5.97369 20.634L6.97369 22.366L4.37562 23.866L3.37562 22.134ZM9.63404 25.0264L8.13404 27.6244L9.86609 28.6244L11.3661 26.0264L9.63404 25.0264ZM22.134 28.6244L20.634 26.0264L22.366 25.0264L23.866 27.6244L22.134 28.6244ZM25.0263 22.366L27.6244 23.866L28.6244 22.134L26.0263 20.634L25.0263 22.366Z" fill="rgb(255,255,255)" fill-rule="evenodd" />
</svg>
