<svg viewBox="0 0 11.2827 20.9536" xmlns="http://www.w3.org/2000/svg" xmlns:xlink="http://www.w3.org/1999/xlink" width="11.282715" height="20.953579" fill="none" customFrame="#000000">
	<path id="Vector" d="M6.56678 13.6007L6.56678 9.04811C6.56678 8.79551 6.46796 8.55325 6.29206 8.37464C6.11616 8.19602 5.87759 8.09568 5.62884 8.09568C5.38008 8.09568 5.14151 8.19602 4.96561 8.37464C4.78971 8.55325 4.69089 8.79551 4.69089 9.04811L4.69089 13.6007C4.40737 13.7669 4.17163 14.0056 4.00708 14.293C3.84254 14.5804 3.75492 14.9065 3.75295 15.2389C3.75295 15.7441 3.95059 16.2286 4.30238 16.5859C4.65418 16.9431 5.13132 17.1438 5.62884 17.1438C6.12635 17.1438 6.60349 16.9431 6.95529 16.5859C7.30709 16.2286 7.50473 15.7441 7.50473 15.2389C7.50275 14.9065 7.41513 14.5804 7.25059 14.293C7.08604 14.0056 6.8503 13.7669 6.56678 13.6007ZM9.84959 11.4292L9.84959 4.28595C9.84959 3.14924 9.4049 2.0591 8.61336 1.25532C7.82181 0.451554 6.74825 8.4593e-16 5.62884 0C4.50942 1.05741e-15 3.43586 0.451554 2.64432 1.25532C1.85277 2.0591 1.40809 3.14924 1.40809 4.28595L1.40809 11.4292C0.75982 12.1751 0.314564 13.08 0.116362 14.0543C-0.0818404 15.0286 -0.0261207 16.0386 0.278009 16.9843C0.582139 17.93 1.12414 18.7788 1.8504 19.4465C2.57666 20.1143 3.46202 20.5779 4.41889 20.7916C4.81638 20.8836 5.22145 20.9378 5.62884 20.9535C6.71744 20.9587 7.78414 20.6431 8.69968 20.045C9.61522 19.447 10.3403 18.5921 10.787 17.5841C11.2337 16.576 11.383 15.458 11.2166 14.3656C11.0502 13.2731 10.5753 12.2531 9.84959 11.4292ZM7.9737 18.1629C7.22742 18.8348 6.24885 19.1782 5.25327 19.1174C4.25768 19.0567 3.32663 18.5969 2.66493 17.8391C2.00324 17.0813 1.6651 16.0876 1.7249 15.0766C1.78471 14.0656 2.23756 13.1202 2.98383 12.4483C3.07246 12.3601 3.14296 12.2549 3.19126 12.1388C3.23957 12.0227 3.2647 11.8981 3.26522 11.7721L3.26522 4.28595C3.26522 3.65444 3.51226 3.04881 3.95201 2.60227C4.39176 2.15573 4.98818 1.90487 5.61008 1.90487C6.23197 1.90487 6.8284 2.15573 7.26814 2.60227C7.70789 3.04881 7.95494 3.65444 7.95494 4.28595L7.95494 11.8483C7.95545 11.9743 7.98059 12.0989 8.02889 12.215C8.07719 12.3311 8.1477 12.4363 8.23632 12.5245C8.61971 12.9006 8.91977 13.3553 9.11651 13.8584C9.31325 14.3615 9.40216 14.9014 9.37731 15.4421C9.35246 15.9828 9.21443 16.5119 8.9724 16.9942C8.73037 17.4765 8.38991 17.9009 7.9737 18.2391L7.9737 18.1629Z" fill="rgb(108.508,151.457,201.875)" fill-rule="nonzero" />
</svg>
