<svg viewBox="0 0 19.3418 15.3123" xmlns="http://www.w3.org/2000/svg" xmlns:xlink="http://www.w3.org/1999/xlink" width="19.341797" height="15.312302" fill="none" customFrame="#000000">
	<path id="outline" d="M8.05918 3.21915L8.05918 3.21441L3.49714 3.21435L7.87318 1.63309L7.87271 1.63179C7.95651 1.61066 8.04324 1.60314 8.12955 1.60958C8.14093 1.61043 8.15231 1.61152 8.16368 1.61286L8.16385 1.61288C8.28236 1.62684 8.39629 1.66696 8.49742 1.73033L8.49743 1.73034C8.59855 1.79372 8.68433 1.87878 8.74858 1.97937L8.74868 1.97953C8.8129 2.08013 8.85398 2.19373 8.86895 2.31214L8.86898 2.31237C8.88393 2.43083 8.87238 2.55113 8.83516 2.66458L8.83513 2.66467C8.79789 2.77814 8.7359 2.88191 8.65365 2.96848L8.65357 2.96856C8.57134 3.0551 8.47091 3.12227 8.35954 3.16523L8.35933 3.16532C8.34885 3.16935 8.33831 3.17317 8.3277 3.17676C8.2412 3.20601 8.1504 3.22033 8.05918 3.21915ZM0 2.76399L0 4.82625L8.0426 4.82635C8.34804 4.82978 8.65185 4.77514 8.93772 4.66486L8.93793 4.66478C9.15554 4.58081 9.35919 4.46597 9.54287 4.32428C9.64067 4.24884 9.73281 4.16579 9.81837 4.07573L9.81844 4.07565C10.0647 3.81647 10.2502 3.5058 10.3617 3.16609L10.3618 3.166C10.4733 2.8263 10.5079 2.46607 10.4632 2.11134L10.4632 2.11111C10.4184 1.75638 10.2954 1.41602 10.103 1.11466L10.1029 1.11449C9.91053 0.813093 9.65356 0.558235 9.35062 0.368353L9.3506 0.368344C9.24533 0.302358 9.13541 0.244792 9.02189 0.19601C8.80875 0.104418 8.58291 0.0437954 8.35124 0.0165582L8.35106 0.016538C8.0059 -0.0240163 7.65617 0.0105173 7.32579 0.117633L7.32554 0.116946L7.30081 0.125881L7.2979 0.126863L7.29756 0.126977L7.29759 0.127049L0 2.76399ZM0 9.66937L0 11.3251L10.6427 15.1113L10.6425 15.1116C11.0277 15.2653 11.442 15.3321 11.8559 15.3073C12.0151 15.2978 12.1727 15.2748 12.3271 15.2388C12.5742 15.1812 12.8132 15.0903 13.0372 14.968C13.4013 14.7694 13.717 14.4929 13.962 14.1582C14.207 13.8236 14.3752 13.439 14.4545 13.0319C14.5339 12.6247 14.5225 12.2051 14.4212 11.8029C14.3198 11.4007 14.1311 11.0258 13.8683 10.7049C13.7066 10.5074 13.5192 10.3333 13.3118 10.187C13.1823 10.0957 13.0449 10.0151 12.901 9.94649C12.5273 9.76819 12.1189 9.67441 11.7049 9.67181L11.7049 9.6694L0 9.66937ZM11.694 11.2814L4.68643 11.2813L11.27 13.6235L11.2694 13.6252C11.4258 13.6829 11.5927 13.7076 11.7594 13.6976C11.9367 13.687 12.1094 13.6374 12.2653 13.5523C12.4212 13.4673 12.5564 13.3489 12.6613 13.2056C12.7662 13.0622 12.8382 12.8976 12.8722 12.7232C12.9062 12.5489 12.9013 12.3692 12.8579 12.1969C12.8145 12.0247 12.7337 11.8642 12.6212 11.7268C12.5087 11.5893 12.3672 11.4785 12.2069 11.402C12.0469 11.3256 11.872 11.2855 11.6947 11.2844L11.6939 11.2844L11.6939 11.2841L11.694 11.2814ZM15.3268 3.42365L15.3261 3.42405L14.5334 2.0206L14.5325 2.01898L14.5341 2.01808C14.9633 1.77588 15.4422 1.6353 15.9342 1.60718C16.0056 1.6031 16.0769 1.6014 16.1482 1.60206C16.5687 1.60598 16.9851 1.69218 17.3737 1.85655C17.8281 2.04877 18.2323 2.34276 18.5553 2.71588C18.8782 3.089 19.1112 3.53129 19.2364 4.00868C19.3615 4.48607 19.3754 4.98582 19.277 5.46944C19.1787 5.95306 18.9706 6.40764 18.669 6.79816C18.411 7.13207 18.0905 7.41153 17.726 7.62133C17.6643 7.65689 17.6012 7.69046 17.537 7.72195C17.094 7.93917 16.607 8.05177 16.1136 8.05108L16.1136 8.05085L0 8.05085L0 6.43904L16.1159 6.43904L16.1159 6.43729C16.3623 6.43764 16.6056 6.38139 16.8269 6.27288C17.0482 6.16437 17.2417 6.00649 17.3924 5.81141C17.5431 5.61634 17.647 5.38926 17.6961 5.14767C17.7453 4.90609 17.7383 4.65645 17.6758 4.41797C17.6133 4.1795 17.4969 3.95856 17.3356 3.77217C17.1743 3.58579 16.9723 3.43893 16.7453 3.34291C16.5183 3.24689 16.2723 3.20427 16.0263 3.21834C15.7805 3.23239 15.5412 3.30263 15.3268 3.42365Z" fill="rgb(255,255,255)" fill-rule="evenodd" />
</svg>
